<svg width="46" height="35" viewBox="0 0 46 35" fill="none" xmlns="http://www.w3.org/2000/svg">
<path d="M16.4822 2.97068H45.75V34.7866H0.75V2.97068H8.83594V0.333496H16.4822V2.97068ZM43.1138 32.1504V13.6047H38.9822C39.2274 13.9782 39.4335 14.3759 39.5972 14.7916C39.7696 15.2219 39.9164 15.6621 40.0369 16.1097C40.1537 16.5472 40.2563 17.0013 40.3444 17.4719C40.4318 17.9356 40.4761 18.4064 40.4766 18.8782C40.4854 20.2979 40.2011 21.7041 39.6413 23.0088C38.555 25.56 36.5233 27.5916 33.9722 28.6779C32.6676 29.2381 31.2613 29.5225 29.8416 29.5132C28.4357 29.5257 27.0431 29.241 25.755 28.6779C24.5091 28.1312 23.3765 27.3563 22.4156 26.3932C21.4452 25.4214 20.6697 24.273 20.1309 23.0097C19.5704 21.7053 19.286 20.2989 19.2956 18.8791C19.2956 18.409 19.325 17.9393 19.3837 17.4729C19.4397 17.0132 19.5277 16.558 19.6472 16.1107C19.7688 15.6578 19.9307 15.2166 20.1309 14.7926C20.3191 14.3808 20.5385 13.984 20.7872 13.6057H3.38719V32.1504H43.1138ZM37.8403 18.8782C37.8491 17.803 37.6253 16.7387 37.1841 15.7582C36.7688 14.8265 36.1881 13.9778 35.4703 13.2532C34.7512 12.5397 33.9005 11.9727 32.9653 11.5835C31.9775 11.1698 30.9162 10.9606 29.8453 10.9685C28.8035 10.9663 27.7721 11.1756 26.8134 11.5835C25.8686 11.9792 25.0046 12.5451 24.2644 13.2532C23.5274 13.9618 22.944 14.8145 22.5506 15.7582C21.7304 17.7573 21.7304 19.999 22.5506 21.9982C22.944 22.9419 23.5273 23.7946 24.2644 24.5032C25.0039 25.2119 25.8677 25.7783 26.8125 26.1738C27.7709 26.5824 28.8025 26.7917 29.8444 26.7888C30.9153 26.7974 31.9768 26.5882 32.9644 26.1738C33.8998 25.7851 34.7507 25.218 35.4694 24.5041C36.1872 23.7795 36.7678 22.9308 37.1831 21.9991C37.6244 21.0187 37.8483 19.9543 37.8394 18.8791L37.8403 18.8782ZM36.7856 10.9685H43.1138V5.60693H3.38719V10.9685H22.8984C23.3746 10.5543 23.8898 10.1872 24.4369 9.87256C24.9754 9.55948 25.5331 9.2805 26.1066 9.03725C26.6864 8.79694 27.2905 8.62028 27.9084 8.51037C28.5463 8.39413 29.1932 8.33546 29.8416 8.33506C30.5047 8.33186 31.1666 8.39087 31.8187 8.51131C32.4347 8.62982 33.0381 8.80656 33.6206 9.03912C34.1993 9.27095 34.7578 9.55034 35.2903 9.87443C35.8183 10.1982 36.3182 10.5657 36.7847 10.9732L36.7856 10.9685Z" fill="#FE506C"/>
</svg>
