<svg width="46" height="40" viewBox="0 0 46 40" fill="none" xmlns="http://www.w3.org/2000/svg">
<path d="M0.25 0.194336H45.25V39.9256H0.25V0.194336ZM42.6138 8.10496V2.8309H35.6697L41.9106 8.10496H42.6138ZM23.365 16.1037H31.0994L37.3394 10.8297H29.605L23.365 16.1037ZM18.2678 8.10496H26.0022L19.7622 2.8309H12.0278L18.2678 8.10496ZM25.5625 10.8297H17.8281L11.5881 16.1037H19.3225L25.5625 10.8297ZM30.0447 8.10496H37.7791L31.5391 2.8309H23.8047L30.0447 8.10496ZM2.88719 2.8309V8.10496H14.1372L7.89625 2.8309H2.88719ZM2.88719 10.8297V16.1037H7.4575L13.6975 10.8297H2.88719ZM42.6138 37.2881V18.7412H2.88719V37.2881H42.6138ZM42.6138 16.1037V10.8297H41.4709L35.2309 16.1037H42.6138Z" fill="#FE506C"/>
</svg>
