<svg width="50" height="51" viewBox="0 0 50 51" fill="none" xmlns="http://www.w3.org/2000/svg">
<path d="M46.681 0.158667L50 0.0482178V22.8369C50.092 27.1158 48.7916 31.3087 46.2945 34.7845C44.0188 37.9786 41.2565 40.7962 38.1083 43.1348C35.4934 45.0922 32.6747 46.7612 29.7012 48.1128C28.3213 48.7786 26.8984 49.3515 25.4421 49.8276L24.8892 50.1596L24.3363 49.8276C22.8957 49.3361 21.4913 48.7446 20.1331 48.0576C17.188 46.6618 14.3895 44.9757 11.7791 43.0243C8.64021 40.6938 5.89569 37.8745 3.65025 34.6741C1.2087 31.2575 -0.0709003 27.1469 -1.35875e-05 22.948V0.0482178L3.31822 0.158667C3.32565 1.45138 3.58888 2.72983 4.09273 3.92032C4.57764 5.12975 5.31277 6.22299 6.2499 7.1283C7.18848 8.02489 8.27335 8.75449 9.45769 9.28561C10.6885 9.84184 12.0367 10.0888 13.3848 10.0049C14.6967 10.0819 16.0075 9.83488 17.2014 9.28561C18.3855 8.75406 19.4703 8.02451 20.4092 7.1283C21.3452 6.22207 22.0802 5.12909 22.5664 3.92032C23.0691 2.72952 23.3321 1.45124 23.3402 0.158667L26.6591 0.0482178C26.6444 1.37881 26.9082 2.69777 27.4336 3.92032C27.9548 5.11019 28.6855 6.19676 29.5908 7.1283C30.49 8.0727 31.5848 8.809 32.7986 9.28561C34.0176 9.76667 35.3065 10.0469 36.6152 10.1154C37.9607 10.0545 39.2872 9.77423 40.5423 9.28561C41.7558 8.80855 42.8506 8.07231 43.7501 7.1283C44.6543 6.19586 45.3848 5.10949 45.9072 3.92032C46.4316 2.69747 46.6952 1.37869 46.681 0.0482178V0.158667ZM3.31822 22.948C3.29216 25.9548 4.11654 28.9077 5.69627 31.4661C7.22044 33.9751 9.10244 36.2484 11.2828 38.2141C13.3017 40.0466 15.5086 41.6604 17.8669 43.0286C19.6355 44.0747 21.4637 45.0166 23.3423 45.8493V8.89832C22.6926 9.54228 22.0094 10.1515 21.2956 10.7236C20.5635 11.3255 19.7427 11.8106 18.8623 12.1615C17.9927 12.5007 17.1066 12.7961 16.2074 13.0465C15.291 13.3049 14.336 13.3987 13.3869 13.3234C12.401 13.4025 11.4089 13.3088 10.4552 13.0465C9.55586 12.7966 8.66976 12.5012 7.80034 12.1615C6.94102 11.8248 6.13833 11.3585 5.42016 10.7788C4.68509 10.1916 3.98335 9.56376 3.31822 8.89832V22.948ZM46.681 22.8376V8.78788C46.0752 9.54497 45.3679 10.2149 44.5791 10.7788C43.8266 11.3045 43.0319 11.767 42.2032 12.1615C41.3588 12.5666 40.4668 12.8639 39.5483 13.0465C38.5803 13.2379 37.6011 13.3672 36.6166 13.4338C35.6694 13.3626 34.7275 13.2332 33.7961 13.0465C32.8707 12.8619 31.9766 12.5453 31.1412 12.1063C30.3048 11.6712 29.4926 11.1911 28.7079 10.6683C27.932 10.1519 27.2414 9.51742 26.6612 8.78788V45.8472C28.0611 45.1835 29.9046 44.2433 32.1918 43.0265C34.595 41.7255 36.8249 40.1272 38.829 38.2694C40.9836 36.2953 42.8455 34.0237 44.3582 31.5234C45.9374 28.8658 46.742 25.8195 46.681 22.7286V22.839V22.8376Z" fill="black"/>
</svg>
