<svg width="50" height="51" viewBox="0 0 50 51" fill="none" xmlns="http://www.w3.org/2000/svg">
<path d="M43.945 17.8046L50 17.7047V26.5926L41.2106 26.4925V19.561C39.9361 18.854 38.5483 18.3739 37.1094 18.1422C35.6888 17.9159 34.2505 17.8197 32.8125 17.8547C31.3596 17.8895 29.9229 18.1684 28.5625 18.6797C27.1806 19.1945 25.8553 19.85 24.6075 20.636C24.6638 20.7472 24.7127 20.8621 24.7537 20.9798C24.7941 21.1069 24.8269 21.2363 24.8519 21.3673C24.8802 21.4968 24.8965 21.6286 24.9006 21.7611V22.1986C24.8909 22.7672 24.7749 23.329 24.5587 23.8549C24.3634 24.3934 24.0457 24.8791 23.6306 25.2738C23.2074 25.6525 22.7303 25.9663 22.215 26.2051C21.6836 26.4597 21.0911 26.5593 20.5056 26.4925C20.4759 26.5262 20.4361 26.5493 20.3921 26.5583C20.3481 26.5673 20.3024 26.5618 20.2619 26.5426C20.1667 26.5113 20.064 26.5113 19.9688 26.5426C19.9281 26.5618 19.8823 26.5672 19.8382 26.5582C19.7942 26.5492 19.7542 26.5262 19.7244 26.4925C19.7126 26.4779 19.6978 26.4662 19.6809 26.4581C19.6641 26.45 19.6456 26.4458 19.6269 26.4458C19.6082 26.4458 19.5897 26.45 19.5728 26.4581C19.5559 26.4662 19.5411 26.4779 19.5294 26.4925C19.195 27.0336 18.9169 27.6074 18.6994 28.2051C18.4706 28.8239 18.275 29.4239 18.1131 30.0115C17.9428 30.6355 17.8284 31.2735 17.7712 31.9178C17.7087 32.5991 17.6738 33.2304 17.6738 33.818C17.6722 34.438 17.7047 35.0577 17.7712 35.6743C17.8449 36.3036 17.9756 36.9249 18.1619 37.5306C18.3573 38.1806 18.569 38.7994 18.7969 39.3869C19.0248 39.9744 19.3015 40.6245 19.6269 41.337L26.4631 41.2432V50.1312L17.6738 50.0312V43.8809C17.3475 43.3559 17.0225 42.7746 16.6975 42.1183C16.3288 41.3618 16.0185 40.5783 15.7694 39.7744C15.4755 38.8611 15.2309 37.9327 15.0369 36.9931C14.8321 35.9473 14.7341 34.8835 14.7444 33.818C14.7444 33.3617 14.7594 32.8429 14.7931 32.2554C14.8217 31.6996 14.8868 31.1463 14.9881 30.599C15.0862 30.074 15.2156 29.524 15.3787 28.9364C15.5223 28.404 15.7019 27.8819 15.9162 27.3739L8.29875 34.793C8.42875 35.0555 8.50937 35.2367 8.54312 35.3305C8.57687 35.4242 8.62375 35.5805 8.68938 35.7742C8.75019 35.9471 8.78309 36.1286 8.78686 36.3118V36.8493C8.7863 37.435 8.67035 38.0148 8.44562 38.5556C8.233 39.0853 7.91756 39.5675 7.5175 39.9745C7.1161 40.3695 6.65477 40.6985 6.15062 40.9495C5.02819 41.3412 3.80618 41.3412 2.68375 40.9495C2.15964 40.7074 1.68069 40.3777 1.2675 39.9745C0.867016 39.568 0.551685 39.0856 0.339997 38.5556C0.114195 38.0151 -0.00200915 37.4351 -0.00187611 36.8493C-0.0151874 36.2603 0.10154 35.6755 0.339997 35.1368C0.583518 34.6259 0.895565 34.1507 1.2675 33.7242C1.64491 33.278 2.13347 32.9395 2.68375 32.7428C3.23646 32.5481 3.80987 32.4181 4.3925 32.3553C4.54943 32.4124 4.71388 32.4461 4.88061 32.4554C5.0309 32.46 5.17911 32.4918 5.31812 32.5491C5.47234 32.6153 5.63843 32.6493 5.80625 32.6491C5.88852 32.6499 5.96976 32.6676 6.04499 32.7009C6.12022 32.7342 6.18784 32.7825 6.24374 32.8429L16.2044 22.7862C16.1599 22.7102 16.1271 22.628 16.1069 22.5424V22.1986C16.0969 21.5957 16.2134 20.9974 16.4487 20.4423C16.6756 19.9204 16.9892 19.4407 17.3762 19.0235C17.7636 18.6016 18.2505 18.2835 18.7925 18.0984C19.345 17.9017 19.9184 17.7695 20.5012 17.7047C20.5228 17.7346 20.5542 17.756 20.59 17.7651C20.6257 17.7742 20.6636 17.7705 20.6969 17.7546C20.7271 17.7392 20.7605 17.7312 20.7944 17.7312C20.8283 17.7312 20.8617 17.7392 20.8919 17.7546C20.9222 17.7701 20.9557 17.7781 20.9897 17.7781C21.0237 17.7781 21.0572 17.7701 21.0875 17.7546C21.1207 17.7388 21.1584 17.7351 21.1941 17.7443C21.2297 17.7534 21.261 17.7747 21.2825 17.8046L32.715 6.27911C32.6293 6.16699 32.5783 6.03231 32.5681 5.89159C32.535 5.69158 32.5056 5.52905 32.4706 5.39779C32.4356 5.26654 32.4081 5.12281 32.3731 4.9603C32.3419 4.81652 32.3256 4.66986 32.3244 4.52274C32.3141 3.91981 32.4306 3.32149 32.6662 2.76644C32.8983 2.23563 33.2297 1.75404 33.6425 1.34761C34.0425 0.939374 34.5254 0.62179 35.0587 0.416324C35.5936 0.218074 36.1514 0.087883 36.7187 0.0288086C37.3189 0.0811899 37.9097 0.211454 38.4762 0.416324C39.0092 0.62255 39.492 0.940034 39.8925 1.34761C40.3041 1.7552 40.6355 2.2365 40.8694 2.76644C41.1036 3.3219 41.2199 3.91996 41.2106 4.52274C41.2101 5.10841 41.0941 5.68829 40.8694 6.22913C40.6598 6.75801 40.3245 7.22781 39.8925 7.59791C39.4594 7.96222 38.9839 8.27281 38.4762 8.52294C37.9317 8.79051 37.3207 8.8927 36.7187 8.81676C36.5658 8.88604 36.3944 8.90356 36.2306 8.86674C36.035 8.83549 35.8556 8.80421 35.6931 8.76671C35.5417 8.73787 35.3946 8.68956 35.2556 8.62297C35.0975 8.54745 34.9344 8.48267 34.7675 8.42917L27.2481 15.9483C27.7774 15.8141 28.299 15.6514 28.8106 15.4608C29.3305 15.2671 29.8713 15.135 30.4219 15.0671C30.9744 15.0046 31.5469 14.9358 32.1306 14.8733C32.6822 14.8107 33.2391 14.8107 33.7906 14.8733C34.689 14.8109 35.5915 14.8592 36.4781 15.017C37.3575 15.1858 38.2194 15.3608 39.0662 15.5545C39.926 15.7564 40.7609 16.0519 41.5562 16.4358C42.3687 16.8296 43.1675 17.2484 43.9487 17.7047V17.8046H43.945ZM36.7187 2.96016C36.5427 3.01836 36.3634 3.06642 36.1819 3.10398C35.997 3.15759 35.8402 3.28078 35.7444 3.4477C35.6138 3.64146 35.5006 3.80399 35.4031 3.93524C35.2928 4.11043 35.2413 4.31624 35.2562 4.52274C35.2709 4.70956 35.3207 4.892 35.4031 5.06033C35.4741 5.24891 35.5915 5.41652 35.7444 5.54779C35.8744 5.64155 36.0206 5.74161 36.1819 5.84162C36.2623 5.88851 36.3521 5.91729 36.4448 5.92592C36.5375 5.93456 36.631 5.92282 36.7187 5.89159C36.9289 5.95766 37.1565 5.93977 37.3537 5.84162C37.515 5.74161 37.6619 5.64155 37.7912 5.54779C37.9438 5.41605 38.0612 5.2486 38.1331 5.06033C38.215 4.89186 38.2646 4.70947 38.2794 4.52274C38.2942 4.31634 38.2429 4.11062 38.1331 3.93524C38.0348 3.80399 37.9208 3.64146 37.7912 3.4477C37.6949 3.28126 37.5382 3.15824 37.3537 3.10398C37.19 3.07273 36.9787 3.02266 36.7187 2.96016ZM4.39437 38.4119C4.59 38.3432 4.78499 38.2806 4.98061 38.2118C5.17338 38.1506 5.3434 38.0331 5.46874 37.8744C5.58153 37.737 5.67976 37.5882 5.76186 37.4306C5.84126 37.2127 5.87446 36.9807 5.85937 36.7493C5.85201 36.5828 5.81912 36.4183 5.76186 36.2618C5.71208 36.089 5.60961 35.936 5.46874 35.8243C5.33749 35.7243 5.17561 35.6117 4.98061 35.4805C4.89783 35.4185 4.8015 35.3772 4.69957 35.3598C4.59763 35.3424 4.49302 35.3495 4.39437 35.3805C4.30403 35.3482 4.20674 35.3404 4.11243 35.358C4.01811 35.3756 3.93015 35.4178 3.85749 35.4805C3.70199 35.605 3.53897 35.7198 3.36936 35.8243C3.20418 35.9216 3.08202 36.0779 3.02749 36.2618C2.96917 36.418 2.93606 36.5826 2.92938 36.7493C2.91343 36.9808 2.94687 37.213 3.02749 37.4306C3.11655 37.5961 3.23202 37.746 3.36936 37.8744C3.50644 38.0201 3.67279 38.135 3.85749 38.2118C4.01937 38.2806 4.19937 38.3432 4.39437 38.4119ZM20.6056 44.1684V47.1998L23.535 47.0998V44.2684L20.6056 44.1684ZM20.5075 23.6612C20.699 23.5986 20.895 23.5505 21.0937 23.5174C21.1947 23.4977 21.2904 23.4569 21.3745 23.3977C21.4586 23.3384 21.5293 23.2621 21.5819 23.1737C21.6895 23.0173 21.7873 22.8545 21.875 22.6861C21.95 22.4998 21.9833 22.2993 21.9725 22.0986C21.963 21.916 21.9303 21.7353 21.875 21.5611C21.8315 21.3716 21.7288 21.2009 21.5819 21.0736C21.4265 20.9639 21.2634 20.8657 21.0937 20.7798C20.706 20.7131 20.3096 20.7131 19.9219 20.7798C19.7519 20.8651 19.5887 20.9634 19.4337 21.0736C19.286 21.2002 19.1831 21.3712 19.1406 21.5611C19.0847 21.7352 19.052 21.916 19.0431 22.0986C19.0317 22.2993 19.065 22.4999 19.1406 22.6861C19.2273 22.855 19.3252 23.0179 19.4337 23.1737C19.486 23.2623 19.5566 23.3389 19.6408 23.3981C19.7249 23.4574 19.8208 23.498 19.9219 23.5174C20.1204 23.5505 20.3162 23.5986 20.5075 23.6612ZM47.07 23.5674V20.7298L44.1406 20.636V23.6612L47.07 23.5674Z" fill="#FE506C"/>
</svg>
